<svg width="1122" height="70" viewBox="0 0 1122 70" fill="none" xmlns="http://www.w3.org/2000/svg">
<mask id="mask0_402_18170" style="mask-type:alpha" maskUnits="userSpaceOnUse" x="0" y="0" width="1122" height="70">
<rect x="0.00683594" width="1121" height="70" rx="24" fill="#D9D9D9"/>
</mask>
<g mask="url(#mask0_402_18170)">
</g>
<g clip-path="url(#clip0_402_18170)">
<path d="M0 24C0 10.7452 10.7452 0 24 0H1097.01C1110.27 0 1121.01 10.7452 1121.01 24V46C1121.01 59.2548 1110.27 70 1097.01 70H24C10.7451 70 0 59.2548 0 46V24Z" fill="white" fill-opacity="0.01"/>
<rect width="1129" height="100" fill="#032F4F"/>
<g opacity="0.35" filter="url(#filter0_f_402_18170)">
<path d="M704.062 17.2031C704.062 -65.6396 771.22 -132.797 854.062 -132.797H1054.06C1136.91 -132.797 1204.06 -65.6396 1204.06 17.2031C1204.06 100.046 1136.91 167.203 1054.06 167.203H854.062C771.22 167.203 704.062 100.046 704.062 17.2031Z" fill="#FF4B4B"/>
</g>
<g opacity="0.2" filter="url(#filter1_f_402_18170)">
<path d="M287.449 14.832C287.449 -54.2036 343.414 -110.168 412.449 -110.168H562.449C631.485 -110.168 687.449 -54.2036 687.449 14.832C687.449 83.8676 631.485 139.832 562.449 139.832H412.449C343.414 139.832 287.449 83.8676 287.449 14.832Z" fill="#FDA5A7"/>
</g>
<g opacity="0.7" filter="url(#filter2_f_402_18170)">
<path d="M-80 100C-80 44.7715 -35.2285 0 20 0H170C225.228 0 270 44.7715 270 100C270 155.228 225.228 200 170 200H20C-35.2285 200 -80 155.228 -80 100Z" fill="#032F4F"/>
</g>
<g opacity="0.7" filter="url(#filter3_f_402_18170)">
<path d="M612.511 62.7539C612.511 13.0483 652.805 -27.2461 702.511 -27.2461H872.511C922.216 -27.2461 962.511 13.0483 962.511 62.7539C962.511 112.46 922.216 152.754 872.511 152.754H702.511C652.805 152.754 612.511 112.46 612.511 62.7539Z" fill="#FF4B4B"/>
</g>
<g opacity="0.5" filter="url(#filter4_f_402_18170)">
<path d="M788 36C788 -8.18278 823.817 -44 868 -44H1008C1052.18 -44 1088 -8.18278 1088 36C1088 80.1828 1052.18 116 1008 116H868C823.817 116 788 80.1828 788 36Z" fill="#FDA5A7"/>
</g>
<g opacity="0.55" filter="url(#filter5_f_402_18170)">
<path d="M851.442 93.8945C851.442 38.6661 896.214 -6.10547 951.442 -6.10547H1001.44C1056.67 -6.10547 1101.44 38.6661 1101.44 93.8945C1101.44 149.123 1056.67 193.895 1001.44 193.895H951.442C896.214 193.895 851.442 149.123 851.442 93.8945Z" fill="#FF4B4B"/>
</g>
<g opacity="0.2" filter="url(#filter6_f_402_18170)">
<path d="M286.08 48.3359C286.08 9.67601 317.42 -21.6641 356.08 -21.6641H476.08C514.74 -21.6641 546.08 9.67601 546.08 48.3359C546.08 86.9959 514.74 118.336 476.08 118.336H356.08C317.42 118.336 286.08 86.9959 286.08 48.3359Z" fill="#FDA5A7"/>
</g>
<g opacity="0.5" filter="url(#filter7_f_402_18170)">
<path d="M367.451 59.9961C367.451 32.3819 389.837 9.99609 417.451 9.99609H517.451C545.065 9.99609 567.451 32.3819 567.451 59.9961C567.451 87.6103 545.065 109.996 517.451 109.996H417.451C389.837 109.996 367.451 87.6103 367.451 59.9961Z" fill="#032F4F"/>
</g>
<g opacity="0.55" filter="url(#filter8_f_402_18170)">
<path d="M830 94C830 38.7715 874.772 -6 930 -6H980C1035.23 -6 1080 38.7715 1080 94C1080 149.228 1035.23 194 980 194H930C874.772 194 830 149.228 830 94Z" fill="#FF4B4B"/>
</g>
<g opacity="0.65" filter="url(#filter9_f_402_18170)">
<path d="M901 48C901 20.3858 923.386 -2 951 -2H1011C1038.61 -2 1061 20.3858 1061 48C1061 75.6142 1038.61 98 1011 98H951C923.386 98 901 75.6142 901 48Z" fill="#FF4B4B"/>
</g>
<g opacity="0.45" filter="url(#filter10_f_402_18170)">
<path d="M910 71C910 48.9086 927.909 31 950 31H990C1012.09 31 1030 48.9086 1030 71C1030 93.0914 1012.09 111 990 111H950C927.909 111 910 93.0914 910 71Z" fill="#FDA5A7"/>
</g>
<g opacity="0.5" filter="url(#filter11_f_402_18170)">
<path d="M939.688 36.4922C939.688 17.1622 955.358 1.49219 974.688 1.49219H984.688C1004.02 1.49219 1019.69 17.1622 1019.69 36.4922C1019.69 55.8222 1004.02 71.4922 984.688 71.4922H974.688C955.358 71.4922 939.688 55.8222 939.688 36.4922Z" fill="#FF4B4B"/>
</g>
<g opacity="0.1" filter="url(#filter12_f_402_18170)">
<path d="M111.708 58.0391C111.708 33.1862 131.855 13.0391 156.708 13.0391H186.708C211.561 13.0391 231.708 33.1862 231.708 58.0391C231.708 82.8919 211.561 103.039 186.708 103.039H156.708C131.855 103.039 111.708 82.8919 111.708 58.0391Z" fill="#FDA5A7"/>
</g>
<g opacity="0.07" filter="url(#filter13_f_402_18170)">
<path d="M35.6396 43.9961C35.6396 10.859 62.5026 -16.0039 95.6396 -16.0039H135.64C168.777 -16.0039 195.64 10.859 195.64 43.9961C195.64 77.1332 168.777 103.996 135.64 103.996H95.6396C62.5026 103.996 35.6396 77.1332 35.6396 43.9961Z" fill="#FF4B4B"/>
</g>
</g>
<path fill-rule="evenodd" clip-rule="evenodd" d="M1046.16 13C1046.45 13 1046.74 13.1214 1046.93 13.335L1048.34 14.7217C1048.35 14.7341 1048.37 14.7483 1048.38 14.7617L1048.39 14.7744C1048.55 14.9423 1048.65 15.1681 1048.65 15.4375V30.835H1058.09C1058.52 30.835 1058.85 31.0835 1059.09 31.4277L1060.22 32.5205C1060.24 32.538 1060.26 32.5576 1060.28 32.5762L1060.31 32.6104H1060.31C1060.62 32.9463 1060.68 33.4753 1060.35 33.8838L1041.61 57.2031C1041.2 57.7236 1040.47 57.6684 1040.08 57.2588L1038.62 55.8223C1038.45 55.6492 1038.35 55.4212 1038.35 55.1445V39.7451H1028.91C1028.59 39.7451 1028.33 39.6085 1028.15 39.4033L1026.74 38.0264H1026.75C1026.39 37.6967 1026.3 37.1296 1026.65 36.6973L1045.39 13.377C1045.6 13.1159 1045.88 13.0001 1046.16 13ZM1028.85 36.6299H1040.04V53.1973L1056.68 32.4961H1045.49V15.9297L1028.85 36.6299Z" fill="#EEEEEE"/>
<path d="M72.7757 45.196C71.469 45.196 70.293 44.972 69.2477 44.524C68.2023 44.0573 67.381 43.404 66.7837 42.564C66.1863 41.724 65.8877 40.744 65.8877 39.624H69.3037C69.3783 40.464 69.705 41.1547 70.2837 41.696C70.881 42.2373 71.7117 42.508 72.7757 42.508C73.877 42.508 74.7357 42.2467 75.3517 41.724C75.9677 41.1827 76.2757 40.492 76.2757 39.652C76.2757 38.9987 76.0797 38.4667 75.6877 38.056C75.3143 37.6453 74.8383 37.328 74.2597 37.104C73.6997 36.88 72.9157 36.6373 71.9077 36.376C70.6383 36.04 69.6023 35.704 68.7997 35.368C68.0157 35.0133 67.3437 34.472 66.7837 33.744C66.2237 33.016 65.9437 32.0453 65.9437 30.832C65.9437 29.712 66.2237 28.732 66.7837 27.892C67.3437 27.052 68.1277 26.408 69.1357 25.96C70.1437 25.512 71.3103 25.288 72.6357 25.288C74.521 25.288 76.061 25.764 77.2557 26.716C78.469 27.6493 79.141 28.9373 79.2717 30.58H75.7437C75.6877 29.8707 75.3517 29.264 74.7357 28.76C74.1197 28.256 73.3077 28.004 72.2997 28.004C71.385 28.004 70.6383 28.2373 70.0597 28.704C69.481 29.1707 69.1917 29.8427 69.1917 30.72C69.1917 31.3173 69.369 31.812 69.7237 32.204C70.097 32.5773 70.5637 32.876 71.1237 33.1C71.6837 33.324 72.449 33.5667 73.4197 33.828C74.7077 34.1827 75.753 34.5373 76.5557 34.892C77.377 35.2467 78.0677 35.7973 78.6277 36.544C79.2063 37.272 79.4957 38.252 79.4957 39.484C79.4957 40.4733 79.225 41.4067 78.6837 42.284C78.161 43.1613 77.3863 43.8707 76.3597 44.412C75.3517 44.9347 74.157 45.196 72.7757 45.196ZM96.9221 36.908C96.9221 37.4867 96.8848 38.0093 96.8101 38.476H85.0221C85.1154 39.708 85.5728 40.6973 86.3941 41.444C87.2154 42.1907 88.2234 42.564 89.4181 42.564C91.1354 42.564 92.3488 41.8453 93.0581 40.408H96.5021C96.0354 41.8267 95.1861 42.9933 93.9541 43.908C92.7408 44.804 91.2288 45.252 89.4181 45.252C87.9434 45.252 86.6181 44.9253 85.4421 44.272C84.2848 43.6 83.3701 42.6667 82.6981 41.472C82.0448 40.2587 81.7181 38.8587 81.7181 37.272C81.7181 35.6853 82.0354 34.2947 82.6701 33.1C83.3234 31.8867 84.2288 30.9533 85.3861 30.3C86.5621 29.6467 87.9061 29.32 89.4181 29.32C90.8741 29.32 92.1714 29.6373 93.3101 30.272C94.4488 30.9067 95.3354 31.8027 95.9701 32.96C96.6048 34.0987 96.9221 35.4147 96.9221 36.908ZM93.5901 35.9C93.5714 34.724 93.1514 33.7813 92.3301 33.072C91.5088 32.3627 90.4914 32.008 89.2781 32.008C88.1768 32.008 87.2341 32.3627 86.4501 33.072C85.6661 33.7627 85.1994 34.7053 85.0501 35.9H93.5901ZM105.183 45.252C103.97 45.252 102.878 45.0373 101.907 44.608C100.955 44.16 100.199 43.5627 99.6394 42.816C99.0794 42.0507 98.7807 41.2013 98.7434 40.268H102.047C102.103 40.9213 102.411 41.472 102.971 41.92C103.55 42.3493 104.269 42.564 105.127 42.564C106.023 42.564 106.714 42.396 107.199 42.06C107.703 41.7053 107.955 41.2573 107.955 40.716C107.955 40.1373 107.675 39.708 107.115 39.428C106.574 39.148 105.706 38.84 104.511 38.504C103.354 38.1867 102.411 37.8787 101.683 37.58C100.955 37.2813 100.321 36.824 99.7794 36.208C99.2567 35.592 98.9954 34.78 98.9954 33.772C98.9954 32.9507 99.238 32.204 99.7234 31.532C100.209 30.8413 100.899 30.3 101.795 29.908C102.71 29.516 103.755 29.32 104.931 29.32C106.686 29.32 108.095 29.768 109.159 30.664C110.242 31.5413 110.821 32.7453 110.895 34.276H107.703C107.647 33.5853 107.367 33.0347 106.863 32.624C106.359 32.2133 105.678 32.008 104.819 32.008C103.979 32.008 103.335 32.1667 102.887 32.484C102.439 32.8013 102.215 33.2213 102.215 33.744C102.215 34.1547 102.365 34.5 102.663 34.78C102.962 35.06 103.326 35.284 103.755 35.452C104.185 35.6013 104.819 35.7973 105.659 36.04C106.779 36.3387 107.694 36.6467 108.403 36.964C109.131 37.2627 109.757 37.7107 110.279 38.308C110.802 38.9053 111.073 39.6987 111.091 40.688C111.091 41.5653 110.849 42.3493 110.363 43.04C109.878 43.7307 109.187 44.272 108.291 44.664C107.414 45.056 106.378 45.252 105.183 45.252ZM119.66 45.252C118.447 45.252 117.355 45.0373 116.384 44.608C115.432 44.16 114.676 43.5627 114.116 42.816C113.556 42.0507 113.258 41.2013 113.22 40.268H116.524C116.58 40.9213 116.888 41.472 117.448 41.92C118.027 42.3493 118.746 42.564 119.604 42.564C120.5 42.564 121.191 42.396 121.676 42.06C122.18 41.7053 122.432 41.2573 122.432 40.716C122.432 40.1373 122.152 39.708 121.592 39.428C121.051 39.148 120.183 38.84 118.988 38.504C117.831 38.1867 116.888 37.8787 116.16 37.58C115.432 37.2813 114.798 36.824 114.256 36.208C113.734 35.592 113.472 34.78 113.472 33.772C113.472 32.9507 113.715 32.204 114.2 31.532C114.686 30.8413 115.376 30.3 116.272 29.908C117.187 29.516 118.232 29.32 119.408 29.32C121.163 29.32 122.572 29.768 123.636 30.664C124.719 31.5413 125.298 32.7453 125.372 34.276H122.18C122.124 33.5853 121.844 33.0347 121.34 32.624C120.836 32.2133 120.155 32.008 119.296 32.008C118.456 32.008 117.812 32.1667 117.364 32.484C116.916 32.8013 116.692 33.2213 116.692 33.744C116.692 34.1547 116.842 34.5 117.14 34.78C117.439 35.06 117.803 35.284 118.232 35.452C118.662 35.6013 119.296 35.7973 120.136 36.04C121.256 36.3387 122.171 36.6467 122.88 36.964C123.608 37.2627 124.234 37.7107 124.756 38.308C125.279 38.9053 125.55 39.6987 125.568 40.688C125.568 41.5653 125.326 42.3493 124.84 43.04C124.355 43.7307 123.664 44.272 122.768 44.664C121.891 45.056 120.855 45.252 119.66 45.252ZM130.161 27.528C129.583 27.528 129.097 27.332 128.705 26.94C128.313 26.548 128.117 26.0627 128.117 25.484C128.117 24.9053 128.313 24.42 128.705 24.028C129.097 23.636 129.583 23.44 130.161 23.44C130.721 23.44 131.197 23.636 131.589 24.028C131.981 24.42 132.177 24.9053 132.177 25.484C132.177 26.0627 131.981 26.548 131.589 26.94C131.197 27.332 130.721 27.528 130.161 27.528ZM131.729 29.572V45H128.537V29.572H131.729ZM142.132 45.252C140.676 45.252 139.36 44.9253 138.184 44.272C137.008 43.6 136.084 42.6667 135.412 41.472C134.74 40.2587 134.404 38.8587 134.404 37.272C134.404 35.704 134.75 34.3133 135.44 33.1C136.131 31.8867 137.074 30.9533 138.268 30.3C139.463 29.6467 140.798 29.32 142.272 29.32C143.747 29.32 145.082 29.6467 146.276 30.3C147.471 30.9533 148.414 31.8867 149.104 33.1C149.795 34.3133 150.14 35.704 150.14 37.272C150.14 38.84 149.786 40.2307 149.076 41.444C148.367 42.6573 147.396 43.6 146.164 44.272C144.951 44.9253 143.607 45.252 142.132 45.252ZM142.132 42.48C142.954 42.48 143.719 42.284 144.428 41.892C145.156 41.5 145.744 40.912 146.192 40.128C146.64 39.344 146.864 38.392 146.864 37.272C146.864 36.152 146.65 35.2093 146.22 34.444C145.791 33.66 145.222 33.072 144.512 32.68C143.803 32.288 143.038 32.092 142.216 32.092C141.395 32.092 140.63 32.288 139.92 32.68C139.23 33.072 138.679 33.66 138.268 34.444C137.858 35.2093 137.652 36.152 137.652 37.272C137.652 38.9333 138.072 40.2213 138.912 41.136C139.771 42.032 140.844 42.48 142.132 42.48ZM160.6 29.32C161.813 29.32 162.896 29.572 163.848 30.076C164.818 30.58 165.574 31.3267 166.116 32.316C166.657 33.3053 166.928 34.5 166.928 35.9V45H163.764V36.376C163.764 34.9947 163.418 33.94 162.728 33.212C162.037 32.4653 161.094 32.092 159.9 32.092C158.705 32.092 157.753 32.4653 157.044 33.212C156.353 33.94 156.008 34.9947 156.008 36.376V45H152.816V29.572H156.008V31.336C156.53 30.7013 157.193 30.2067 157.996 29.852C158.817 29.4973 159.685 29.32 160.6 29.32ZM176.119 45.252C174.906 45.252 173.814 45.0373 172.843 44.608C171.891 44.16 171.135 43.5627 170.575 42.816C170.015 42.0507 169.717 41.2013 169.679 40.268H172.983C173.039 40.9213 173.347 41.472 173.907 41.92C174.486 42.3493 175.205 42.564 176.063 42.564C176.959 42.564 177.65 42.396 178.135 42.06C178.639 41.7053 178.891 41.2573 178.891 40.716C178.891 40.1373 178.611 39.708 178.051 39.428C177.51 39.148 176.642 38.84 175.447 38.504C174.29 38.1867 173.347 37.8787 172.619 37.58C171.891 37.2813 171.257 36.824 170.715 36.208C170.193 35.592 169.931 34.78 169.931 33.772C169.931 32.9507 170.174 32.204 170.659 31.532C171.145 30.8413 171.835 30.3 172.731 29.908C173.646 29.516 174.691 29.32 175.867 29.32C177.622 29.32 179.031 29.768 180.095 30.664C181.178 31.5413 181.757 32.7453 181.831 34.276H178.639C178.583 33.5853 178.303 33.0347 177.799 32.624C177.295 32.2133 176.614 32.008 175.755 32.008C174.915 32.008 174.271 32.1667 173.823 32.484C173.375 32.8013 173.151 33.2213 173.151 33.744C173.151 34.1547 173.301 34.5 173.599 34.78C173.898 35.06 174.262 35.284 174.691 35.452C175.121 35.6013 175.755 35.7973 176.595 36.04C177.715 36.3387 178.63 36.6467 179.339 36.964C180.067 37.2627 180.693 37.7107 181.215 38.308C181.738 38.9053 182.009 39.6987 182.027 40.688C182.027 41.5653 181.785 42.3493 181.299 43.04C180.814 43.7307 180.123 44.272 179.227 44.664C178.35 45.056 177.314 45.252 176.119 45.252Z" fill="white"/>
<path d="M39.8506 25V29" stroke="white" stroke-width="1.78866" stroke-linecap="round" stroke-linejoin="round"/>
<path d="M47.8506 25V29" stroke="white" stroke-width="1.78866" stroke-linecap="round" stroke-linejoin="round"/>
<path d="M50.8496 27H36.8496C35.745 27 34.8496 27.8954 34.8496 29V43C34.8496 44.1046 35.745 45 36.8496 45H50.8496C51.9542 45 52.8496 44.1046 52.8496 43V29C52.8496 27.8954 51.9542 27 50.8496 27Z" stroke="white" stroke-width="1.78866" stroke-linecap="round" stroke-linejoin="round"/>
<path d="M34.8496 33H52.8496" stroke="white" stroke-width="1.78866" stroke-linecap="round" stroke-linejoin="round"/>
<defs>
<filter id="filter0_f_402_18170" x="504.062" y="-332.797" width="900" height="700" filterUnits="userSpaceOnUse" color-interpolation-filters="sRGB">
<feFlood flood-opacity="0" result="BackgroundImageFix"/>
<feBlend mode="normal" in="SourceGraphic" in2="BackgroundImageFix" result="shape"/>
<feGaussianBlur stdDeviation="100" result="effect1_foregroundBlur_402_18170"/>
</filter>
<filter id="filter1_f_402_18170" x="47.4492" y="-350.168" width="880" height="730" filterUnits="userSpaceOnUse" color-interpolation-filters="sRGB">
<feFlood flood-opacity="0" result="BackgroundImageFix"/>
<feBlend mode="normal" in="SourceGraphic" in2="BackgroundImageFix" result="shape"/>
<feGaussianBlur stdDeviation="120" result="effect1_foregroundBlur_402_18170"/>
</filter>
<filter id="filter2_f_402_18170" x="-240" y="-160" width="670" height="520" filterUnits="userSpaceOnUse" color-interpolation-filters="sRGB">
<feFlood flood-opacity="0" result="BackgroundImageFix"/>
<feBlend mode="normal" in="SourceGraphic" in2="BackgroundImageFix" result="shape"/>
<feGaussianBlur stdDeviation="80" result="effect1_foregroundBlur_402_18170"/>
</filter>
<filter id="filter3_f_402_18170" x="452.511" y="-187.246" width="670" height="500" filterUnits="userSpaceOnUse" color-interpolation-filters="sRGB">
<feFlood flood-opacity="0" result="BackgroundImageFix"/>
<feBlend mode="normal" in="SourceGraphic" in2="BackgroundImageFix" result="shape"/>
<feGaussianBlur stdDeviation="80" result="effect1_foregroundBlur_402_18170"/>
</filter>
<filter id="filter4_f_402_18170" x="608" y="-224" width="660" height="520" filterUnits="userSpaceOnUse" color-interpolation-filters="sRGB">
<feFlood flood-opacity="0" result="BackgroundImageFix"/>
<feBlend mode="normal" in="SourceGraphic" in2="BackgroundImageFix" result="shape"/>
<feGaussianBlur stdDeviation="90" result="effect1_foregroundBlur_402_18170"/>
</filter>
<filter id="filter5_f_402_18170" x="711.442" y="-146.105" width="530" height="480" filterUnits="userSpaceOnUse" color-interpolation-filters="sRGB">
<feFlood flood-opacity="0" result="BackgroundImageFix"/>
<feBlend mode="normal" in="SourceGraphic" in2="BackgroundImageFix" result="shape"/>
<feGaussianBlur stdDeviation="70" result="effect1_foregroundBlur_402_18170"/>
</filter>
<filter id="filter6_f_402_18170" x="106.08" y="-201.664" width="620" height="500" filterUnits="userSpaceOnUse" color-interpolation-filters="sRGB">
<feFlood flood-opacity="0" result="BackgroundImageFix"/>
<feBlend mode="normal" in="SourceGraphic" in2="BackgroundImageFix" result="shape"/>
<feGaussianBlur stdDeviation="90" result="effect1_foregroundBlur_402_18170"/>
</filter>
<filter id="filter7_f_402_18170" x="247.451" y="-110.004" width="440" height="340" filterUnits="userSpaceOnUse" color-interpolation-filters="sRGB">
<feFlood flood-opacity="0" result="BackgroundImageFix"/>
<feBlend mode="normal" in="SourceGraphic" in2="BackgroundImageFix" result="shape"/>
<feGaussianBlur stdDeviation="60" result="effect1_foregroundBlur_402_18170"/>
</filter>
<filter id="filter8_f_402_18170" x="690" y="-146" width="530" height="480" filterUnits="userSpaceOnUse" color-interpolation-filters="sRGB">
<feFlood flood-opacity="0" result="BackgroundImageFix"/>
<feBlend mode="normal" in="SourceGraphic" in2="BackgroundImageFix" result="shape"/>
<feGaussianBlur stdDeviation="70" result="effect1_foregroundBlur_402_18170"/>
</filter>
<filter id="filter9_f_402_18170" x="811" y="-92" width="340" height="280" filterUnits="userSpaceOnUse" color-interpolation-filters="sRGB">
<feFlood flood-opacity="0" result="BackgroundImageFix"/>
<feBlend mode="normal" in="SourceGraphic" in2="BackgroundImageFix" result="shape"/>
<feGaussianBlur stdDeviation="45" result="effect1_foregroundBlur_402_18170"/>
</filter>
<filter id="filter10_f_402_18170" x="830" y="-49" width="280" height="240" filterUnits="userSpaceOnUse" color-interpolation-filters="sRGB">
<feFlood flood-opacity="0" result="BackgroundImageFix"/>
<feBlend mode="normal" in="SourceGraphic" in2="BackgroundImageFix" result="shape"/>
<feGaussianBlur stdDeviation="40" result="effect1_foregroundBlur_402_18170"/>
</filter>
<filter id="filter11_f_402_18170" x="879.688" y="-58.5078" width="200" height="190" filterUnits="userSpaceOnUse" color-interpolation-filters="sRGB">
<feFlood flood-opacity="0" result="BackgroundImageFix"/>
<feBlend mode="normal" in="SourceGraphic" in2="BackgroundImageFix" result="shape"/>
<feGaussianBlur stdDeviation="30" result="effect1_foregroundBlur_402_18170"/>
</filter>
<filter id="filter12_f_402_18170" x="31.708" y="-66.9609" width="280" height="250" filterUnits="userSpaceOnUse" color-interpolation-filters="sRGB">
<feFlood flood-opacity="0" result="BackgroundImageFix"/>
<feBlend mode="normal" in="SourceGraphic" in2="BackgroundImageFix" result="shape"/>
<feGaussianBlur stdDeviation="40" result="effect1_foregroundBlur_402_18170"/>
</filter>
<filter id="filter13_f_402_18170" x="-84.3604" y="-136.004" width="400" height="360" filterUnits="userSpaceOnUse" color-interpolation-filters="sRGB">
<feFlood flood-opacity="0" result="BackgroundImageFix"/>
<feBlend mode="normal" in="SourceGraphic" in2="BackgroundImageFix" result="shape"/>
<feGaussianBlur stdDeviation="60" result="effect1_foregroundBlur_402_18170"/>
</filter>
<clipPath id="clip0_402_18170">
<path d="M0 24C0 10.7452 10.7452 0 24 0H1097.01C1110.27 0 1121.01 10.7452 1121.01 24V46C1121.01 59.2548 1110.27 70 1097.01 70H24C10.7451 70 0 59.2548 0 46V24Z" fill="white"/>
</clipPath>
</defs>
</svg>
